<?xml version="1.0" encoding="UTF-8"?>
<!DOCTYPE svg PUBLIC "-//W3C//DTD SVG 1.1//EN" "http://www.w3.org/Graphics/SVG/1.1/DTD/svg11.dtd">
<?xml-stylesheet href="codebay_wave.css" type="text/css"?>
<svg xmlns="http://www.w3.org/2000/svg" width="145.461mm" height="47.3434mm" version="1.1" viewBox="0 0 14546.06 4734.34">
 <g id="codeBayLogo">
  <path class="wholeLogo" d="M8050.91 4065.37c-105.4,0 -204.83,-15.36 -298.24,-46.18 -93.52,-30.83 -175,-81.54 -244.6,-152.13 -69.55,-70.6 -124.79,-162.52 -165.44,-275.87 -40.82,-113.29 -61.21,-253.49 -61.21,-420.53 0,-166.99 20.39,-307.19 61.21,-420.54 40.65,-113.3 95.89,-205.27 165.44,-275.87 69.6,-70.59 151.08,-121.25 244.6,-152.07 93.41,-30.83 192.84,-46.24 298.24,-46.24l665.08 0 0 337.02 -614.43 0c-51.65,0 -100.37,6.41 -146.11,19.39 -45.74,12.92 -87,34.25 -123.73,64.13 -36.79,29.83 -68.17,69.6 -94.02,119.32 -25.85,49.71 -44.69,111.25 -56.62,184.88l1034.91 0 0 340 -1034.91 0c11.93,75.51 30.77,138.16 56.62,187.87 25.85,49.72 57.23,89.54 94.02,119.32 36.73,29.83 77.99,50.71 123.73,62.64 45.74,11.88 94.46,17.9 146.11,17.9l614.43 0 0 336.96 -665.08 0zm-1582.94 -2139.42c-598.96,-68.22 -1206.1,-361.21 -1677.24,-359 -172.62,0.82 -368.94,28.44 -533,59.76l-21.6 4.37 -35.46 -65.52c111.75,-32.09 257.25,-58.27 452.74,-66.89 725.4,-31.98 1337.45,229.41 1814.56,301.61l0 125.67zm-6428.04 690.05c794.17,-669.45 830.24,-1470.09 1734.51,-2166.93 218.58,-168.43 434.9,-232.4 665.75,-357.84 -570.52,28.44 -1208.75,474.23 -1601.34,1314.2 -192.51,411.97 -616.03,992.7 -798.92,1210.57zm3012.25 1095.78c866.93,693.48 1998.79,-90.26 2768.05,-86.61 172.62,0.82 368.94,28.39 533,59.76 164.67,31.44 428.94,119.38 578.31,129.04 -178.76,-32.97 -408.94,-232.22 -973.99,-257.08 -794.56,-35.08 -1453.23,281.94 -1947.4,316.74 -493.73,34.75 -578.08,-35.79 -957.97,-161.85zm-2241.78 -1334.8c180.86,-411.98 144.12,-624.49 519.7,-1147.16 476.82,-663.59 1352.42,-1164.94 2271.55,-1109.26 223.78,13.64 504.61,137.05 540.19,316.69 60.59,306.41 -457.77,237.86 -247.09,-64.97 -1222.34,-349.22 -2572.17,1259.3 -1986.57,2497.21 127.82,270.18 517.87,765.34 771.19,845.49 -103.63,-187.09 -343.25,-253.1 -545.54,-728.11 -288.24,-676.9 -156.22,-1421.47 553,-1836.37l366.74 -119.65c215.59,-20.05 464.67,-6.85 390.26,214.77 -112.24,-25.85 -106.78,-65.9 -138.48,-113.08 -3.04,-4.53 -6.63,-16.07 -12.05,-22.76 -529.69,10.89 -683.03,397.01 -809.97,589.69 -69.99,106.22 -84.79,80.26 -176.05,165.16l-74.46 81.26c94.57,-75.24 92.41,-91.87 202.56,-156.38l243.44 -133.3c155.39,-70.04 379.33,-132.57 582.17,-136.44 168.04,-3.26 471.14,83.03 580.29,135.06 98.38,46.96 396.78,247.69 138.04,371.32 -146.44,-238.47 162.18,-56.18 -71.97,-229.91 -257.97,-191.34 -693.65,-97.05 -942.61,43.53 -224.33,126.78 -259.02,193.12 -387.12,395.57 -56.95,90.04 -88.38,140.59 -101.25,279.35 -11.77,126.44 7.57,247.53 68.72,351.15 -9.5,-394.02 37.89,-578.3 299.73,-737.16 163.61,-99.27 607.74,-294.87 675.52,-83.86 52.97,164.84 0.55,76.01 -13.98,105.29 -276.8,46.73 18.84,-126.94 -214.33,-87.94 -262.77,43.86 -566.75,381.76 -610.34,689.49 -70.48,497.88 336.96,921.56 699.89,966.97 -413.8,-26.13 -880.52,-908.25 -344.86,-1430.59 352.53,-343.75 318.73,70.76 521.24,-126.61 136.82,-144.67 -94.68,-337.57 -566.04,-162.35 74.35,-197.09 514.99,-242.61 721.42,-181.07 287.86,85.9 -14.74,147.05 222.95,260.67 330.5,157.93 298.18,-502.95 -374.69,-587.36 -349.33,-43.86 -604.65,43.86 -889.3,119.71 46.13,-116.83 5.31,-47.29 88,-146.77 86.67,-104.3 308.4,-285.09 430.65,-266.92 136.88,74.46 -6.25,5.58 85.4,67.94 329.22,224.11 456.38,-348.34 -187.1,-291.94 -368.72,32.26 -620.95,264.49 -834.83,485.83 31.98,-336.02 773.07,-969.61 1412.25,-961.05 165.94,442.63 500.47,265.76 573.38,192.34 393.2,-395.62 -703.2,-1025.85 -1806.27,-473.51 -607.19,304.04 -1174.89,818.15 -1432.58,1399.55 -73.47,165.71 -208.86,525.6 -190.8,760.48zm961.89 1689.38c561.62,329.73 1136.27,502.68 1829.64,490.91 343.86,-5.8 1025.96,-154.61 1235.48,-304.09 -196.98,8.84 -473.29,115.12 -707.01,152.3 -1797.32,285.42 -2344.74,-1106.83 -2734.18,-1329.5 -371.65,-212.51 -916.98,-109.38 -1396.23,50.82 160.69,-8.18 362.31,-31.66 544.27,17.23 590.12,158.7 854.72,703.14 1228.03,922.33zm11418.52 -3741.53c-78.61,144.51 -260.29,264.88 -238.3,621.23 45.35,735.12 943.82,914.65 1546.04,962.43 -337.85,73.47 -966.97,-98.27 -1222.62,-239.19 -280.23,-154.39 -568.8,-463.73 -598.35,-907.8 -287.41,8.67 -515.99,166.99 -710.87,295.31 -453.91,298.9 -871.24,540.24 -1414.57,626.86 -180.86,28.83 -811.42,76.67 -959.4,-4.26 807.38,-56.62 1138.76,-52.58 1833.84,-494.61 366.34,-232.94 1063.02,-1085.18 1764.23,-859.97zm464.51 1652.54c-295.04,5.97 -650.83,-133.95 -868.92,-253.88 -276.86,-152.24 -200.35,-267.3 -868.08,-85.62 -303.43,82.48 -580.79,180.58 -882.89,230.35 -244.55,40.27 -834.06,104.13 -1040.27,-7.12 531.73,1.71 812.51,25.63 1355.9,-214 324.81,-143.18 768.55,-427.22 1174.12,-470.53 95.5,111.47 141.68,335.74 444.67,527.59 157.05,99.43 468.49,243.88 685.47,273.21zm890.73 -179.74c-372.2,-24.14 -741.03,-127.22 -1010.6,-286.03 -137.11,-80.82 -253.27,-185.17 -320.89,-326.3 -87.66,-183.18 -69.71,-391.82 69.49,-490.58 178.26,-126.56 337.41,21.26 221.29,266.47 -313.37,661.99 904.16,758.05 1040.71,836.44zm-1236.97 215.32c-475.61,44.85 -798.76,-174.83 -1265.59,-128.65 -392.97,38.83 -819.59,194.77 -1236.09,134.23 118.93,-30.38 225.93,-20.22 351.82,-37.9 374.3,-52.53 623.7,-177.87 930.89,-240.9 667.24,-136.99 329.39,183.73 1218.97,273.22zm781.47 -686.63c-42.15,-61.48 -31.38,-146.44 -187.92,-170.13 -105.62,-16.02 -216.38,14.36 -217.59,126.83 -1.83,160.74 252.55,249.51 350.99,329.88 -177.98,-27.89 -607.08,-238.3 -442.63,-464.78 58.22,-80.21 208.63,-128.65 343.03,-103.68 68.83,12.81 124.51,43.41 159.31,89.87 60.32,80.54 20.5,119.32 -5.19,192.01zm-3310.77 2181.3c0,-105.4 13.92,-193.84 41.76,-265.43 27.84,-71.53 65.57,-128.76 113.29,-171.46 47.79,-42.76 103.91,-73.53 168.54,-92.47 64.63,-18.9 133.73,-28.34 207.26,-28.34l721.81 0c0,-61.65 -11.99,-114.35 -35.85,-158.04 -23.81,-43.75 -55.13,-78.61 -93.91,-104.4 -38.83,-25.86 -84.02,-44.75 -135.72,-56.68 -51.65,-11.93 -107.33,-17.9 -166.99,-17.9l-700.88 0 0 -336.96 751.59 0c105.34,0 204.28,11.38 296.75,34.25 92.41,22.87 173.95,61.15 244.54,114.84 70.6,53.7 126.28,123.24 166.99,208.75 40.77,85.51 61.21,190.86 61.21,316.14l0 1115.45 -1109.54 0c-73.53,0 -142.63,-9.45 -207.26,-28.34 -64.63,-18.89 -120.75,-50.21 -168.54,-93.96 -47.72,-43.75 -85.45,-101.42 -113.29,-172.96 -27.84,-71.59 -41.76,-159.03 -41.76,-262.49zm387.72 0c0,81.53 22.37,138.7 67.06,171.51 44.75,32.82 96.95,49.22 156.61,49.22l641.27 0 0 -444.34 -641.27 0c-59.66,0 -111.86,15.85 -156.61,47.67 -44.69,31.82 -67.06,90.48 -67.06,175.94zm-2206.98 -1828.21l387.67 0 0 596.53 483.18 0c105.34,0 204.77,15.36 298.29,46.18 93.41,30.83 174.89,81.54 244.49,152.08 69.61,70.65 124.79,162.57 165.56,275.92 40.76,113.35 61.15,253.49 61.15,420.48 0,167.1 -20.39,307.24 -61.15,420.54 -40.77,113.35 -95.95,205.32 -165.56,275.86 -36.95,37.51 -77.28,69.38 -120.97,95.68 -119.98,-74.69 -221.23,-150.64 -281.89,-221.73l-31.15 -36.46 9.06 -2.98c52.7,-17.9 98.43,-48.23 137.16,-90.98 38.78,-42.76 69.65,-99.93 92.41,-171.47 22.93,-71.59 34.36,-161.07 34.36,-268.46 0,-107.33 -11.43,-196.82 -34.36,-268.41 -22.76,-71.59 -53.63,-128.71 -92.41,-171.46 -38.73,-42.76 -84.46,-73.14 -137.16,-90.98 -52.65,-17.9 -108.88,-26.85 -168.54,-26.85l-432.47 0 0 1115.4 432.47 0c15.25,0 30.27,-0.56 45.02,-1.72 -153.18,88.06 -296.63,186.93 -446.44,280.07 -33.37,20.71 -66.29,40.27 -98.88,58.72l-319.84 0 0 -2385.96zm-233.33 2658.45c844.61,40.05 1003.59,-161.07 1108.6,-106.55l153.01 76.12c115.51,41.87 241.84,97.27 387.9,148.76 536.2,189.19 1498.58,346.24 2122.79,247.91 -674.86,-36.02 -2269.01,-458.98 -2633.92,-886.43 -335.09,190.3 -479.32,361.27 -971.33,462.97 -36.9,7.62 -45.96,6.18 -84.74,19.11l-82.31 38.11zm-2585.09 -272.49c-105.4,0 -204.77,-15.41 -298.29,-46.24 -93.41,-30.82 -174.89,-81.53 -244.55,-152.13 -30.49,-30.93 -58.28,-65.95 -83.24,-105.17 101.75,-19.67 204.71,-33.04 303.7,-32.54 169.04,0.77 348.12,26.24 513.95,57.95 190.96,36.46 399.93,118.32 591.17,130.64l88.16 5.69 0 141.8 -870.9 0zm-739.93 -585.43c-19.72,-90.15 -29.56,-193.23 -29.56,-309.34 0,-166.99 20.39,-307.13 61.21,-420.48 40.71,-113.35 95.84,-205.27 165.44,-275.92 69.66,-70.54 151.14,-121.25 244.55,-152.08 93.52,-30.82 192.89,-46.18 298.29,-46.18l483.18 0 0 -596.53 387.72 0 0 2043.64 -62.58 -11.49c-90.32,-16.68 -232.73,-91.92 -324.15,-126.55l-0.99 -0.39 0 -971.72 -432.47 0c-59.66,0 -115.84,8.95 -168.48,26.85 -52.7,17.84 -98.49,48.22 -137.22,90.98 -38.77,42.75 -69.65,99.87 -92.47,171.46 -22.87,71.59 -34.3,161.08 -34.3,268.41 0,107.39 11.43,196.87 34.3,268.46l3.7 11.22c-133.62,1.65 -265.31,12.32 -396.17,29.66zm-1953.27 -309.34c0,-172.95 22.93,-319.06 68.67,-438.38 45.68,-119.32 107.33,-216.21 185.93,-290.83 78.5,-74.58 170.47,-128.22 275.31,-161.03 105.4,-32.75 218.26,-49.22 339.51,-49.22 119.31,0 231.17,16.47 336.57,49.22 104.84,32.81 197.26,86.45 276.86,161.03 79.49,74.62 142.13,171.51 188.81,290.83 46.79,119.32 70.15,265.43 70.15,438.38 0,132.74 -13.75,249.57 -41.26,350.72 -100.81,19.38 -201.57,41.92 -302.82,66.56 -57.01,13.81 -115.9,29.28 -175.94,45.13 38.67,-44.3 69.88,-102.03 93.52,-173.12 25.85,-77.5 38.78,-173.89 38.78,-289.29 0,-115.28 -12.93,-211.68 -38.78,-289.29 -25.85,-77.5 -60.65,-139.15 -104.35,-184.88 -43.8,-45.74 -94.96,-78.56 -153.62,-98.39 -58.66,-19.94 -120.81,-29.88 -186.38,-29.88 -65.68,0 -127.77,9.94 -186.43,29.88 -58.66,19.83 -109.87,52.65 -153.62,98.39 -43.75,45.73 -78.55,107.38 -104.4,184.88 -25.8,77.61 -38.73,174.01 -38.73,289.29 0,115.4 12.93,211.79 38.73,289.29 25.85,77.61 60.65,139.2 104.4,184.94 43.75,45.74 94.96,78.55 153.62,98.44 8.51,2.87 17.12,5.58 25.8,8.01 -53.09,8.5 -105.4,14.86 -156.39,18.45 -182.12,12.81 -302.43,10.82 -408.77,-5.09 -29.22,-46.78 -54.68,-98.65 -76.5,-155.55 -45.74,-119.32 -68.67,-265.42 -68.67,-438.49zm1459.04 750.59c-74.02,63.53 -158.48,110.1 -253.05,139.7 -105.4,32.82 -217.26,49.17 -336.57,49.17 -73.14,0 -143.13,-5.97 -210.36,-17.85 156.94,-14.86 316.14,-45.24 476.22,-84.13 108.66,-26.4 216.32,-56.28 323.76,-86.89zm8636.61 403.64c87.45,0 161.52,-19.39 222.18,-58.11 60.65,-38.84 90.98,-105.95 90.98,-201.35l-483.18 0c-105.4,0 -201.79,-11.44 -289.35,-34.31 -87.44,-22.81 -162.51,-61.15 -225.15,-114.78 -62.64,-53.7 -110.81,-123.79 -144.67,-210.3 -33.76,-86.5 -50.66,-192.4 -50.66,-317.63l0 -1112.41 387.73 0 0 1112.41c0,127.22 32.31,215.77 96.94,265.43 64.58,49.71 156.55,74.57 275.87,74.57l432.47 0 0 -1452.41 387.72 0 0 1789.43c0,111.36 -15.47,204.77 -46.29,280.34 -30.82,75.57 -73.03,136.72 -126.72,183.45 -53.69,46.73 -116.33,80.48 -187.92,101.36 -71.54,20.88 -148.1,31.32 -229.63,31.32l-870.91 0 0 -337.01 760.59 0z"/>
 </g>
</svg>
